G04 DipTrace 3.2.0.1*
G04 Bottom.gbr*
%MOIN*%
G04 #@! TF.FileFunction,Copper,L2,Bot*
G04 #@! TF.Part,Single*
G04 #@! TA.AperFunction,Conductor*
%ADD14C,0.008*%
%ADD15C,0.01*%
%ADD20R,0.052X0.295*%
G04 #@! TA.AperFunction,ViaPad*
%ADD21C,0.024*%
%FSLAX26Y26*%
G04*
G70*
G90*
G75*
G01*
G04 Bottom*
%LPD*%
X504625Y1587357D2*
D14*
Y2374774D1*
Y3162192D1*
Y3949609D1*
Y4743276D1*
Y5530693D1*
Y6324360D1*
Y7061782D1*
X529622Y7086780D1*
X504625Y1587357D2*
Y787441D1*
X558157Y733908D1*
Y556215D1*
X492115Y555963D2*
Y731207D1*
X479627Y743696D1*
Y7074281D1*
X492126Y7086780D1*
X454630D2*
Y768693D1*
X423383Y737446D1*
Y559155D1*
X426073Y556465D1*
X529622Y1381129D2*
Y1612354D1*
Y2168546D2*
Y2406021D1*
Y2949714D2*
Y3187189D1*
Y3743381D2*
Y3980856D1*
Y4530798D2*
Y4768273D1*
Y5318215D2*
Y5555690D1*
Y6355606D2*
D15*
Y6361856D1*
Y6355606D2*
Y6311861D1*
D14*
Y6099383D1*
D21*
X504625Y1587357D3*
Y2374774D3*
Y3162192D3*
Y3949609D3*
Y4743276D3*
Y5530693D3*
Y6324360D3*
X529622Y7086780D3*
X504625Y1587357D3*
X492126Y7086780D3*
X454630D3*
X529622Y1381129D3*
Y1612354D3*
Y2168546D3*
Y2406021D3*
Y2949714D3*
Y3187189D3*
Y3743381D3*
Y3980856D3*
Y4530798D3*
Y4768273D3*
Y5318215D3*
Y5555690D3*
Y6355606D3*
Y6099383D3*
Y6355606D3*
Y6099383D3*
D20*
X558157Y556215D3*
X492115Y555963D3*
X426073Y556465D3*
M02*
