M48
INCH
T01C0.016
%
T01
X+005046Y+015874
X+005296Y+016124
X+005296Y+013811
X+005296Y+021685
X+005046Y+023748
X+005296Y+024060
X+005296Y+029497
X+005046Y+031622
X+005296Y+031872
X+005296Y+037434
X+005046Y+039496
X+005296Y+039809
X+005296Y+045308
X+005046Y+047433
X+005296Y+047683
X+005296Y+053182
X+005046Y+055307
X+005296Y+055557
X+005296Y+060994
X+005046Y+063244
X+005296Y+063556
X+005296Y+070868
X+004921Y+070868
X+004546Y+070868
T00
M30
