G04 DipTrace 3.2.0.1*
G04 Top.gbr*
%MOIN*%
G04 #@! TF.FileFunction,Copper,L1,Top*
G04 #@! TF.Part,Single*
G04 #@! TA.AperFunction,Conductor*
%ADD14C,0.008*%
%ADD15C,0.01*%
G04 #@! TA.AperFunction,CopperBalancing*
%ADD16C,0.025*%
%ADD18R,0.019685X0.062992*%
%ADD19R,0.011811X0.062992*%
%ADD20R,0.052X0.295*%
G04 #@! TA.AperFunction,ViaPad*
%ADD21C,0.024*%
%FSLAX26Y26*%
G04*
G70*
G90*
G75*
G01*
G04 Top*
%LPD*%
X527559Y1526215D2*
D14*
Y1564423D1*
X504625Y1587357D1*
Y2374774D2*
X529622Y2349777D1*
Y2315680D1*
X527559Y2313617D1*
X504625Y3162192D2*
X529622Y3137194D1*
Y3103081D1*
X527559Y3101018D1*
X504625Y3949609D2*
X523373Y3930861D1*
Y3892606D1*
X527559Y3888420D1*
X504625Y4743276D2*
X529622Y4718278D1*
Y4677885D1*
X527559Y4675822D1*
X504625Y5530693D2*
X529622Y5505696D1*
Y5465286D1*
X527559Y5463223D1*
X504625Y6324360D2*
X529622Y6299362D1*
Y6252688D1*
X527559Y6250625D1*
X529622Y7086780D2*
Y7040089D1*
X527559Y7038026D1*
X492115Y556465D2*
Y731207D1*
X479627Y743696D1*
Y1387378D1*
X492126Y1399877D1*
Y1435979D1*
Y7086780D2*
Y7038026D1*
X426073Y556215D2*
Y740136D1*
X454630Y768693D1*
Y1433916D1*
X456693Y1435979D1*
Y7038037D2*
Y7084717D1*
X454630Y7086780D1*
X558157Y556215D2*
Y721409D1*
X529622Y749945D1*
X527559Y1435979D2*
Y1379066D1*
X529622Y1381129D1*
Y1612354D2*
Y1643601D1*
X527559Y2223381D2*
Y2166483D1*
X529622Y2168546D1*
Y2406021D2*
Y2393522D1*
X527559Y3010782D2*
Y2951777D1*
X529622Y2949714D1*
Y3187189D2*
Y3205937D1*
X523373D1*
X527559Y3798184D2*
Y3743381D1*
X529622D1*
Y3980856D2*
Y3968357D1*
X527559Y4585585D2*
Y4532861D1*
X529622Y4530798D1*
Y4768273D2*
X523373D1*
Y4799520D1*
X527559Y5372987D2*
Y5320278D1*
X529622Y5318215D1*
Y5555690D2*
X517123D1*
Y5574438D1*
X527559Y6947790D2*
Y6926360D1*
X529622Y6924297D1*
X527559Y6947790D2*
D15*
Y6890987D1*
X523373Y6886801D1*
X527559Y6947790D2*
Y6357669D1*
X529622Y6355606D1*
X527559Y6947790D2*
D3*
X529622Y6099383D2*
D14*
X527559Y6101446D1*
Y6160388D1*
X529622Y6099383D2*
D15*
Y6158325D1*
X527559Y6160388D1*
X492126Y1526215D2*
D14*
Y1562360D1*
X479627Y1574858D1*
Y2174795D1*
X492126Y2187294D1*
Y2223381D1*
X456693D2*
Y1526226D1*
X492126Y2313617D2*
Y2349777D1*
X479627Y2362276D1*
Y2962213D1*
X492126Y2974711D1*
Y3010782D1*
X456693Y2313627D2*
Y3010782D1*
X492126Y3101018D2*
Y3143444D1*
X479627Y3155942D1*
Y3749630D1*
X492126Y3762129D1*
Y3798184D1*
X456693Y3101029D2*
Y3798184D1*
X492126Y3888420D2*
Y3930861D1*
X479627Y3943360D1*
Y4537047D1*
X492126Y4549546D1*
Y4585585D1*
X456693Y3888430D2*
Y4585585D1*
X492126Y4675822D2*
Y4718278D1*
X479627Y4730777D1*
Y5324465D1*
X492126Y5336963D1*
Y5372987D1*
X456693Y4675832D2*
Y5372987D1*
X492126Y5463223D2*
Y5505696D1*
X479627Y5518194D1*
Y6111882D1*
X492126Y6124381D1*
Y6160388D1*
X456693Y5463234D2*
Y6160388D1*
X492126Y6250625D2*
Y6293113D1*
X479627Y6305612D1*
Y6899299D1*
X492126Y6911798D1*
Y6947790D1*
X456693Y6250635D2*
Y6947790D1*
D21*
X504625Y1587357D3*
Y2374774D3*
Y3162192D3*
Y3949609D3*
Y4743276D3*
Y5530693D3*
Y6324360D3*
X529622Y7086780D3*
X504625Y1587357D3*
X492126Y7086780D3*
X454630D3*
X529622Y1381129D3*
Y1612354D3*
Y2168546D3*
Y2406021D3*
Y2949714D3*
Y3187189D3*
Y3743381D3*
Y3980856D3*
Y4530798D3*
Y4768273D3*
Y5318215D3*
Y5555690D3*
Y6355606D3*
Y6099383D3*
Y6355606D3*
Y6099383D3*
X512611Y760857D2*
D16*
X521180D1*
X524740Y735988D2*
X554548D1*
X521617Y1377991D2*
X513364D1*
X510123Y1374751D1*
X510119Y756355D1*
X515302Y751010D1*
X518114Y747139D1*
X520287Y742876D1*
X521765Y738326D1*
X522514Y733600D1*
X522607Y731198D1*
X531487Y730456D1*
X544608D1*
Y427199D1*
X557053Y427201D1*
X557051Y738914D1*
X553159Y739096D1*
X542755Y741312D1*
X540134Y742648D1*
X531783Y748413D1*
X529873Y750651D1*
X524365Y759170D1*
X523456Y761969D1*
X521628Y771954D1*
X521618Y1377987D1*
X521617Y2165392D2*
X513364D1*
X510123Y2162169D1*
X510120Y1625444D1*
X516519Y1623965D1*
X521617Y1621876D1*
X521618Y2165357D1*
X521617Y2952794D2*
X513364D1*
X510123Y2949586D1*
X510119Y2412862D1*
X516519Y2411382D1*
X521617Y2409293D1*
X521618Y2952800D1*
X521617Y3740195D2*
X513292D1*
X510123Y3737003D1*
X510119Y3200279D1*
X516519Y3198800D1*
X521617Y3196711D1*
X521618Y3740171D1*
X521617Y4527597D2*
X513292D1*
X510123Y4524421D1*
X510120Y3987696D1*
X516519Y3986217D1*
X521617Y3984128D1*
X521618Y4527613D1*
X521617Y5314999D2*
X513292D1*
X510123Y5311838D1*
X510120Y4781357D1*
X516519Y4779884D1*
X521617Y4777795D1*
X521618Y5314984D1*
X521617Y6102400D2*
X513292D1*
X510123Y6099255D1*
X510119Y5568775D1*
X516519Y5567301D1*
X521617Y5565212D1*
X521618Y6102427D1*
X521617Y6889802D2*
X513220D1*
X510123Y6886673D1*
X510120Y6362436D1*
X516519Y6360968D1*
X521617Y6358879D1*
X521618Y6889798D1*
X510119Y1625438D2*
X516519Y1623965D1*
X521617Y1621876D1*
D18*
X527559Y1526215D3*
X456693Y1526226D3*
Y1435979D3*
X527559D3*
D19*
X492126Y1526215D3*
Y1435979D3*
D18*
X527559Y2313617D3*
X456693Y2313627D3*
Y2223381D3*
X527559D3*
D19*
X492126Y2313617D3*
Y2223381D3*
D18*
X527559Y3101018D3*
X456693Y3101029D3*
Y3010782D3*
X527559D3*
D19*
X492126Y3101018D3*
Y3010782D3*
D18*
X527559Y3888420D3*
X456693Y3888430D3*
Y3798184D3*
X527559D3*
D19*
X492126Y3888420D3*
Y3798184D3*
D18*
X527559Y4675822D3*
X456693Y4675832D3*
Y4585585D3*
X527559D3*
D19*
X492126Y4675822D3*
Y4585585D3*
D18*
X527559Y5463223D3*
X456693Y5463234D3*
Y5372987D3*
X527559D3*
D19*
X492126Y5463223D3*
Y5372987D3*
D18*
X527559Y6250625D3*
X456693Y6250635D3*
Y6160388D3*
X527559D3*
D19*
X492126Y6250625D3*
Y6160388D3*
D18*
X527559Y7038026D3*
X456693Y7038037D3*
Y6947790D3*
X527559D3*
D19*
X492126Y7038026D3*
Y6947790D3*
D20*
X558157Y556215D3*
X492115Y556465D3*
X426073Y556215D3*
M02*
