G04 DipTrace 3.2.0.1*
G04 TopDimension.gbr*
%MOIN*%
G04 #@! TF.FileFunction,Drawing,Top*
G04 #@! TF.Part,Single*
%ADD13C,0.001378*%
%ADD33C,0.006176*%
%FSLAX26Y26*%
G04*
G70*
G90*
G75*
G01*
G04 TopDimension*
%LPD*%
X429134Y7111024D2*
D13*
Y7212703D1*
X555118Y7111024D2*
Y7212703D1*
X429134Y7193018D2*
X555118D1*
X370079D2*
X389764D1*
G36*
X429134D2*
X389764Y7185144D1*
Y7200892D1*
X429134Y7193018D1*
G37*
X614173D2*
D13*
X594488D1*
G36*
X555118D2*
X594488Y7200892D1*
Y7185144D1*
X555118Y7193018D1*
G37*
X429134Y7111024D2*
D13*
X78732D1*
X393701Y393701D2*
X78732D1*
X98417Y3752362D2*
Y7071654D1*
G36*
Y7111024D2*
X106291Y7071654D1*
X90543D1*
X98417Y7111024D1*
G37*
Y3752362D2*
D13*
Y433071D1*
G36*
Y393701D2*
X90543Y433071D1*
X106291D1*
X98417Y393701D1*
G37*
X492126Y1481118D2*
D13*
X203719D1*
X492126Y2268535D2*
X203719D1*
X223404Y1874827D2*
Y1520488D1*
G36*
Y1481118D2*
X215530Y1520488D1*
X231278D1*
X223404Y1481118D1*
G37*
Y1874827D2*
D13*
Y2229165D1*
G36*
Y2268535D2*
X231278Y2229165D1*
X215530D1*
X223404Y2268535D1*
G37*
X457991Y7245377D2*
D33*
X478994D1*
X467542Y7230078D1*
X473290D1*
X477092Y7228177D1*
X478994Y7226276D1*
X480939Y7220528D1*
Y7216725D1*
X478994Y7210977D1*
X475191Y7207130D1*
X469443Y7205229D1*
X463695D1*
X457991Y7207130D1*
X456090Y7209076D1*
X454144Y7212878D1*
X495192Y7209076D2*
X493290Y7207130D1*
X495192Y7205229D1*
X497137Y7207130D1*
X495192Y7209076D1*
X511434Y7235826D2*
Y7237728D1*
X513335Y7241574D1*
X515237Y7243476D1*
X519083Y7245377D1*
X526733D1*
X530535Y7243476D1*
X532437Y7241574D1*
X534382Y7237728D1*
Y7233925D1*
X532437Y7230078D1*
X528634Y7224374D1*
X509489Y7205229D1*
X536283D1*
X53708Y3665234D2*
X51763Y3669081D1*
X46059Y3674829D1*
X86207D1*
Y3694830D2*
X46059Y3713975D1*
Y3687180D1*
Y3737823D2*
X47960Y3732074D1*
X53708Y3728228D1*
X63259Y3726326D1*
X69007D1*
X78557Y3728228D1*
X84305Y3732074D1*
X86207Y3737823D1*
Y3741625D1*
X84305Y3747373D1*
X78557Y3751176D1*
X69007Y3753121D1*
X63259D1*
X53708Y3751176D1*
X47960Y3747373D1*
X46059Y3741625D1*
Y3737823D1*
X53708Y3751176D2*
X78557Y3728228D1*
X82360Y3767374D2*
X84305Y3765473D1*
X86207Y3767374D1*
X84305Y3769319D1*
X82360Y3767374D1*
X51763Y3804619D2*
X47960Y3802717D1*
X46059Y3796969D1*
Y3793167D1*
X47960Y3787419D1*
X53708Y3783572D1*
X63259Y3781671D1*
X72809D1*
X80459Y3783572D1*
X84305Y3787419D1*
X86207Y3793167D1*
Y3795068D1*
X84305Y3800772D1*
X80459Y3804619D1*
X74711Y3806520D1*
X72809D1*
X67061Y3804619D1*
X63259Y3800772D1*
X61357Y3795068D1*
Y3793167D1*
X63259Y3787419D1*
X67061Y3783572D1*
X72809Y3781671D1*
X55609Y3820817D2*
X53708D1*
X49861Y3822718D1*
X47960Y3824619D1*
X46059Y3828466D1*
Y3836115D1*
X47960Y3839918D1*
X49861Y3841819D1*
X53708Y3843765D1*
X57511D1*
X61357Y3841819D1*
X67061Y3838017D1*
X86207Y3818871D1*
Y3845666D1*
X180596Y1846890D2*
X178695D1*
X174848Y1848791D1*
X172947Y1850692D1*
X171046Y1854539D1*
Y1862188D1*
X172947Y1865991D1*
X174848Y1867892D1*
X178695Y1869838D1*
X182498D1*
X186344Y1867892D1*
X192048Y1864090D1*
X211193Y1844944D1*
Y1871739D1*
X171046Y1895586D2*
X172947Y1889838D1*
X178695Y1885992D1*
X188246Y1884090D1*
X193994D1*
X203544Y1885992D1*
X209292Y1889838D1*
X211193Y1895586D1*
Y1899389D1*
X209292Y1905137D1*
X203544Y1908940D1*
X193994Y1910885D1*
X188246D1*
X178695Y1908940D1*
X172947Y1905137D1*
X171046Y1899389D1*
Y1895586D1*
X178695Y1908940D2*
X203544Y1885992D1*
M02*
