G04 DipTrace 3.2.0.1*
G04 TopPaste.gbr*
%MOIN*%
G04 #@! TF.FileFunction,Paste,Top*
G04 #@! TF.Part,Single*
%ADD27R,0.044126X0.287126*%
%ADD29R,0.003937X0.055118*%
%ADD31R,0.011811X0.055118*%
%FSLAX26Y26*%
G04*
G70*
G90*
G75*
G01*
G04 TopPaste*
%LPD*%
D31*
X527559Y1526215D3*
X456693Y1526226D3*
Y1435979D3*
X527559D3*
D29*
X492126Y1526215D3*
Y1435979D3*
D31*
X527559Y2313617D3*
X456693Y2313627D3*
Y2223381D3*
X527559D3*
D29*
X492126Y2313617D3*
Y2223381D3*
D31*
X527559Y3101018D3*
X456693Y3101029D3*
Y3010782D3*
X527559D3*
D29*
X492126Y3101018D3*
Y3010782D3*
D31*
X527559Y3888420D3*
X456693Y3888430D3*
Y3798184D3*
X527559D3*
D29*
X492126Y3888420D3*
Y3798184D3*
D31*
X527559Y4675822D3*
X456693Y4675832D3*
Y4585585D3*
X527559D3*
D29*
X492126Y4675822D3*
Y4585585D3*
D31*
X527559Y5463223D3*
X456693Y5463234D3*
Y5372987D3*
X527559D3*
D29*
X492126Y5463223D3*
Y5372987D3*
D31*
X527559Y6250625D3*
X456693Y6250635D3*
Y6160388D3*
X527559D3*
D29*
X492126Y6250625D3*
Y6160388D3*
D31*
X527559Y7038026D3*
X456693Y7038037D3*
Y6947790D3*
X527559D3*
D29*
X492126Y7038026D3*
Y6947790D3*
D27*
X558157Y556215D3*
X492115Y556465D3*
X426073Y556215D3*
M02*
