G04 DipTrace 3.2.0.1*
G04 BoardOutline.gbr*
%MOIN*%
G04 #@! TF.FileFunction,Profile*
G04 #@! TF.Part,Single*
%ADD11C,0.005512*%
%FSLAX26Y26*%
G04*
G70*
G90*
G75*
G01*
G04 BoardOutline*
%LPD*%
X7094000Y394000D2*
D11*
X394000D1*
Y7094000D1*
X7094000D1*
Y394000D1*
X6397914Y1023108D2*
X6603900D1*
Y954090D1*
X6397914D1*
Y1023108D1*
X5610512D2*
X5816498D1*
Y954090D1*
X5610512D1*
Y1023108D1*
X4823110D2*
X5029096D1*
Y954090D1*
X4823110D1*
Y1023108D1*
X4035709D2*
X4241695D1*
Y954090D1*
X4035709D1*
Y1023108D1*
X3248307D2*
X3454293D1*
Y954090D1*
X3248307D1*
Y1023108D1*
X2460906D2*
X2666892D1*
Y954090D1*
X2460906D1*
Y1023108D1*
X1673504D2*
X1879490D1*
Y954090D1*
X1673504D1*
Y1023108D1*
X886102D2*
X1092088D1*
Y954090D1*
X886102D1*
Y1023108D1*
X6397914Y1810509D2*
X6603900D1*
Y1741491D1*
X6397914D1*
Y1810509D1*
X5610512D2*
X5816498D1*
Y1741491D1*
X5610512D1*
Y1810509D1*
X4823110D2*
X5029096D1*
Y1741491D1*
X4823110D1*
Y1810509D1*
X4035709D2*
X4241695D1*
Y1741491D1*
X4035709D1*
Y1810509D1*
X3248307D2*
X3454293D1*
Y1741491D1*
X3248307D1*
Y1810509D1*
X2460906D2*
X2666892D1*
Y1741491D1*
X2460906D1*
Y1810509D1*
X1673504D2*
X1879490D1*
Y1741491D1*
X1673504D1*
Y1810509D1*
X886102D2*
X1092088D1*
Y1741491D1*
X886102D1*
Y1810509D1*
X6397914Y2597911D2*
X6603900D1*
Y2528893D1*
X6397914D1*
Y2597911D1*
X5610512D2*
X5816498D1*
Y2528893D1*
X5610512D1*
Y2597911D1*
X4823110D2*
X5029096D1*
Y2528893D1*
X4823110D1*
Y2597911D1*
X4035709D2*
X4241695D1*
Y2528893D1*
X4035709D1*
Y2597911D1*
X3248307D2*
X3454293D1*
Y2528893D1*
X3248307D1*
Y2597911D1*
X2460906D2*
X2666892D1*
Y2528893D1*
X2460906D1*
Y2597911D1*
X1673504D2*
X1879490D1*
Y2528893D1*
X1673504D1*
Y2597911D1*
X886102D2*
X1092088D1*
Y2528893D1*
X886102D1*
Y2597911D1*
X6397914Y3385312D2*
X6603900D1*
Y3316295D1*
X6397914D1*
Y3385312D1*
X5610512D2*
X5816498D1*
Y3316295D1*
X5610512D1*
Y3385312D1*
X4823110D2*
X5029096D1*
Y3316295D1*
X4823110D1*
Y3385312D1*
X4035709D2*
X4241695D1*
Y3316295D1*
X4035709D1*
Y3385312D1*
X3248307D2*
X3454293D1*
Y3316295D1*
X3248307D1*
Y3385312D1*
X2460906D2*
X2666892D1*
Y3316295D1*
X2460906D1*
Y3385312D1*
X1673504D2*
X1879490D1*
Y3316295D1*
X1673504D1*
Y3385312D1*
X886102D2*
X1092088D1*
Y3316295D1*
X886102D1*
Y3385312D1*
X6397914Y4172714D2*
X6603900D1*
Y4103696D1*
X6397914D1*
Y4172714D1*
X5610512D2*
X5816498D1*
Y4103696D1*
X5610512D1*
Y4172714D1*
X4823110D2*
X5029096D1*
Y4103696D1*
X4823110D1*
Y4172714D1*
X4035709D2*
X4241695D1*
Y4103696D1*
X4035709D1*
Y4172714D1*
X3248307D2*
X3454293D1*
Y4103696D1*
X3248307D1*
Y4172714D1*
X2460906D2*
X2666892D1*
Y4103696D1*
X2460906D1*
Y4172714D1*
X1673504D2*
X1879490D1*
Y4103696D1*
X1673504D1*
Y4172714D1*
X886102D2*
X1092088D1*
Y4103696D1*
X886102D1*
Y4172714D1*
X6397914Y4960115D2*
X6603900D1*
Y4891098D1*
X6397914D1*
Y4960115D1*
X5610512D2*
X5816498D1*
Y4891098D1*
X5610512D1*
Y4960115D1*
X4823110D2*
X5029096D1*
Y4891098D1*
X4823110D1*
Y4960115D1*
X4035709D2*
X4241695D1*
Y4891098D1*
X4035709D1*
Y4960115D1*
X3248307D2*
X3454293D1*
Y4891098D1*
X3248307D1*
Y4960115D1*
X2460906D2*
X2666892D1*
Y4891098D1*
X2460906D1*
Y4960115D1*
X1673504D2*
X1879490D1*
Y4891098D1*
X1673504D1*
Y4960115D1*
X886102D2*
X1092088D1*
Y4891098D1*
X886102D1*
Y4960115D1*
X6397914Y5747517D2*
X6603900D1*
Y5678499D1*
X6397914D1*
Y5747517D1*
X5610512D2*
X5816498D1*
Y5678499D1*
X5610512D1*
Y5747517D1*
X4823110D2*
X5029096D1*
Y5678499D1*
X4823110D1*
Y5747517D1*
X4035709D2*
X4241695D1*
Y5678499D1*
X4035709D1*
Y5747517D1*
X3248307D2*
X3454293D1*
Y5678499D1*
X3248307D1*
Y5747517D1*
X2460906D2*
X2666892D1*
Y5678499D1*
X2460906D1*
Y5747517D1*
X1673504D2*
X1879490D1*
Y5678499D1*
X1673504D1*
Y5747517D1*
X886102D2*
X1092088D1*
Y5678499D1*
X886102D1*
Y5747517D1*
X6397914Y6534919D2*
X6603900D1*
Y6465901D1*
X6397914D1*
Y6534919D1*
X5610512D2*
X5816498D1*
Y6465901D1*
X5610512D1*
Y6534919D1*
X4823110D2*
X5029096D1*
Y6465901D1*
X4823110D1*
Y6534919D1*
X4035709D2*
X4241695D1*
Y6465901D1*
X4035709D1*
Y6534919D1*
X3248307D2*
X3454293D1*
Y6465901D1*
X3248307D1*
Y6534919D1*
X2460906D2*
X2666892D1*
Y6465901D1*
X2460906D1*
Y6534919D1*
X1673504D2*
X1879490D1*
Y6465901D1*
X1673504D1*
Y6534919D1*
X886102D2*
X1092088D1*
Y6465901D1*
X886102D1*
Y6534919D1*
M02*
