G04 DipTrace 3.2.0.1*
G04 BottomMask.gbr*
%MOIN*%
G04 #@! TF.FileFunction,Soldermask,Bot*
G04 #@! TF.Part,Single*
%ADD54C,0.11811*%
%ADD61R,0.108X0.088*%
%ADD63C,0.077*%
%ADD65R,0.084772X0.084772*%
%ADD67R,0.02178X0.027685*%
%ADD69R,0.027685X0.02178*%
%ADD71R,0.069024X0.059181*%
%ADD73R,0.059181X0.069024*%
%ADD75C,0.078866*%
%ADD77C,0.055244*%
%ADD79R,0.055244X0.055244*%
%ADD81R,0.133984X0.078866*%
%ADD83R,0.049339X0.033591*%
%ADD85R,0.033591X0.049339*%
%ADD87R,0.070992X0.04737*%
%ADD89R,0.252094X0.220598*%
%ADD91C,0.067055*%
%ADD93C,0.074929*%
%ADD95R,0.074929X0.074929*%
%ADD97C,0.08674*%
%ADD99R,0.08674X0.08674*%
%ADD101R,0.06X0.12611*%
%ADD105R,0.051307X0.04737*%
%ADD107R,0.04737X0.051307*%
%ADD109R,0.132016X0.070992*%
%FSLAX26Y26*%
G04*
G70*
G90*
G75*
G01*
G04 BotMask*
%LPD*%
D109*
X6756500Y3731500D3*
X6563587D3*
X6756500Y4531500D3*
X6563587D3*
D107*
X6731500Y2856500D3*
Y2789571D3*
D105*
X4356500Y1394000D3*
X4289571D3*
D107*
X4644000Y1352071D3*
Y1419000D3*
X4544000Y1219000D3*
Y1152071D3*
X4419000Y1219000D3*
Y1152071D3*
D54*
X6819000Y6819000D3*
X669000D3*
Y669000D3*
X6819000D3*
D101*
X6433882Y1086614D3*
X6499906D3*
X6565929D3*
X6433882Y889575D3*
X6499906D3*
X6565929D3*
X5646480Y1086614D3*
X5712504D3*
X5778528D3*
X5646480Y889575D3*
X5712504D3*
X5778528D3*
X4859079Y1086614D3*
X4925102D3*
X4991126D3*
X4859079Y889575D3*
X4925102D3*
X4991126D3*
X4071677Y1086614D3*
X4137701D3*
X4203724D3*
X4071677Y889575D3*
X4137701D3*
X4203724D3*
X3284276Y1086614D3*
X3350299D3*
X3416323D3*
X3284276Y889575D3*
X3350299D3*
X3416323D3*
X2496874Y1086614D3*
X2562898D3*
X2628921D3*
X2496874Y889575D3*
X2562898D3*
X2628921D3*
X1709472Y1086614D3*
X1775496D3*
X1841520D3*
X1709472Y889575D3*
X1775496D3*
X1841520D3*
X922071Y1086614D3*
X988094D3*
X1054118D3*
X922071Y889575D3*
X988094D3*
X1054118D3*
X6433882Y1874016D3*
X6499906D3*
X6565929D3*
X6433882Y1676976D3*
X6499906D3*
X6565929D3*
X5646480Y1874016D3*
X5712504D3*
X5778528D3*
X5646480Y1676976D3*
X5712504D3*
X5778528D3*
X4859079Y1874016D3*
X4925102D3*
X4991126D3*
X4859079Y1676976D3*
X4925102D3*
X4991126D3*
X4071677Y1874016D3*
X4137701D3*
X4203724D3*
X4071677Y1676976D3*
X4137701D3*
X4203724D3*
X3284276Y1874016D3*
X3350299D3*
X3416323D3*
X3284276Y1676976D3*
X3350299D3*
X3416323D3*
X2496874Y1874016D3*
X2562898D3*
X2628921D3*
X2496874Y1676976D3*
X2562898D3*
X2628921D3*
X1709472Y1874016D3*
X1775496D3*
X1841520D3*
X1709472Y1676976D3*
X1775496D3*
X1841520D3*
X922071Y1874016D3*
X988094D3*
X1054118D3*
X922071Y1676976D3*
X988094D3*
X1054118D3*
X6433882Y2661417D3*
X6499906D3*
X6565929D3*
X6433882Y2464378D3*
X6499906D3*
X6565929D3*
X5646480Y2661417D3*
X5712504D3*
X5778528D3*
X5646480Y2464378D3*
X5712504D3*
X5778528D3*
X4859079Y2661417D3*
X4925102D3*
X4991126D3*
X4859079Y2464378D3*
X4925102D3*
X4991126D3*
X4071677Y2661417D3*
X4137701D3*
X4203724D3*
X4071677Y2464378D3*
X4137701D3*
X4203724D3*
X3284276Y2661417D3*
X3350299D3*
X3416323D3*
X3284276Y2464378D3*
X3350299D3*
X3416323D3*
X2496874Y2661417D3*
X2562898D3*
X2628921D3*
X2496874Y2464378D3*
X2562898D3*
X2628921D3*
X1709472Y2661417D3*
X1775496D3*
X1841520D3*
X1709472Y2464378D3*
X1775496D3*
X1841520D3*
X922071Y2661417D3*
X988094D3*
X1054118D3*
X922071Y2464378D3*
X988094D3*
X1054118D3*
X6433882Y3448819D3*
X6499906D3*
X6565929D3*
X6433882Y3251780D3*
X6499906D3*
X6565929D3*
X5646480Y3448819D3*
X5712504D3*
X5778528D3*
X5646480Y3251780D3*
X5712504D3*
X5778528D3*
X4859079Y3448819D3*
X4925102D3*
X4991126D3*
X4859079Y3251780D3*
X4925102D3*
X4991126D3*
X4071677Y3448819D3*
X4137701D3*
X4203724D3*
X4071677Y3251780D3*
X4137701D3*
X4203724D3*
X3284276Y3448819D3*
X3350299D3*
X3416323D3*
X3284276Y3251780D3*
X3350299D3*
X3416323D3*
X2496874Y3448819D3*
X2562898D3*
X2628921D3*
X2496874Y3251780D3*
X2562898D3*
X2628921D3*
X1709472Y3448819D3*
X1775496D3*
X1841520D3*
X1709472Y3251780D3*
X1775496D3*
X1841520D3*
X922071Y3448819D3*
X988094D3*
X1054118D3*
X922071Y3251780D3*
X988094D3*
X1054118D3*
X6433882Y4236220D3*
X6499906D3*
X6565929D3*
X6433882Y4039181D3*
X6499906D3*
X6565929D3*
X5646480Y4236220D3*
X5712504D3*
X5778528D3*
X5646480Y4039181D3*
X5712504D3*
X5778528D3*
X4859079Y4236220D3*
X4925102D3*
X4991126D3*
X4859079Y4039181D3*
X4925102D3*
X4991126D3*
X4071677Y4236220D3*
X4137701D3*
X4203724D3*
X4071677Y4039181D3*
X4137701D3*
X4203724D3*
X3284276Y4236220D3*
X3350299D3*
X3416323D3*
X3284276Y4039181D3*
X3350299D3*
X3416323D3*
X2496874Y4236220D3*
X2562898D3*
X2628921D3*
X2496874Y4039181D3*
X2562898D3*
X2628921D3*
X1709472Y4236220D3*
X1775496D3*
X1841520D3*
X1709472Y4039181D3*
X1775496D3*
X1841520D3*
X922071Y4236220D3*
X988094D3*
X1054118D3*
X922071Y4039181D3*
X988094D3*
X1054118D3*
X6433882Y5023622D3*
X6499906D3*
X6565929D3*
X6433882Y4826583D3*
X6499906D3*
X6565929D3*
X5646480Y5023622D3*
X5712504D3*
X5778528D3*
X5646480Y4826583D3*
X5712504D3*
X5778528D3*
X4859079Y5023622D3*
X4925102D3*
X4991126D3*
X4859079Y4826583D3*
X4925102D3*
X4991126D3*
X4071677Y5023622D3*
X4137701D3*
X4203724D3*
X4071677Y4826583D3*
X4137701D3*
X4203724D3*
X3284276Y5023622D3*
X3350299D3*
X3416323D3*
X3284276Y4826583D3*
X3350299D3*
X3416323D3*
X2496874Y5023622D3*
X2562898D3*
X2628921D3*
X2496874Y4826583D3*
X2562898D3*
X2628921D3*
X1709472Y5023622D3*
X1775496D3*
X1841520D3*
X1709472Y4826583D3*
X1775496D3*
X1841520D3*
X922071Y5023622D3*
X988094D3*
X1054118D3*
X922071Y4826583D3*
X988094D3*
X1054118D3*
X6433882Y5811024D3*
X6499906D3*
X6565929D3*
X6433882Y5613984D3*
X6499906D3*
X6565929D3*
X5646480Y5811024D3*
X5712504D3*
X5778528D3*
X5646480Y5613984D3*
X5712504D3*
X5778528D3*
X4859079Y5811024D3*
X4925102D3*
X4991126D3*
X4859079Y5613984D3*
X4925102D3*
X4991126D3*
X4071677Y5811024D3*
X4137701D3*
X4203724D3*
X4071677Y5613984D3*
X4137701D3*
X4203724D3*
X3284276Y5811024D3*
X3350299D3*
X3416323D3*
X3284276Y5613984D3*
X3350299D3*
X3416323D3*
X2496874Y5811024D3*
X2562898D3*
X2628921D3*
X2496874Y5613984D3*
X2562898D3*
X2628921D3*
X1709472Y5811024D3*
X1775496D3*
X1841520D3*
X1709472Y5613984D3*
X1775496D3*
X1841520D3*
X922071Y5811024D3*
X988094D3*
X1054118D3*
X922071Y5613984D3*
X988094D3*
X1054118D3*
X6433882Y6598425D3*
X6499906D3*
X6565929D3*
X6433882Y6401386D3*
X6499906D3*
X6565929D3*
X5646480Y6598425D3*
X5712504D3*
X5778528D3*
X5646480Y6401386D3*
X5712504D3*
X5778528D3*
X4859079Y6598425D3*
X4925102D3*
X4991126D3*
X4859079Y6401386D3*
X4925102D3*
X4991126D3*
X4071677Y6598425D3*
X4137701D3*
X4203724D3*
X4071677Y6401386D3*
X4137701D3*
X4203724D3*
X3284276Y6598425D3*
X3350299D3*
X3416323D3*
X3284276Y6401386D3*
X3350299D3*
X3416323D3*
X2496874Y6598425D3*
X2562898D3*
X2628921D3*
X2496874Y6401386D3*
X2562898D3*
X2628921D3*
X1709472Y6598425D3*
X1775496D3*
X1841520D3*
X1709472Y6401386D3*
X1775496D3*
X1841520D3*
X922071Y6598425D3*
X988094D3*
X1054118D3*
X922071Y6401386D3*
X988094D3*
X1054118D3*
D99*
X2262751Y794000D3*
D97*
X2062751D3*
D95*
X3106500Y1406500D3*
D93*
X3006500D3*
X2906500D3*
X2806500D3*
D91*
X6837751Y4273719D3*
Y4173719D3*
Y4067470D3*
Y3954969D3*
Y3498719D3*
Y3373719D3*
Y3248719D3*
Y3136219D3*
D89*
X6526874Y2942622D3*
D87*
X6239472Y2852858D3*
Y3032386D3*
D85*
X6056500Y2756500D3*
X5981697D3*
X6019098Y2847051D3*
D83*
X6375249Y1442470D3*
Y1517273D3*
X6465801Y1479871D3*
X6375249Y1273719D3*
Y1348522D3*
X6465801Y1311121D3*
D81*
X5719000Y2831500D3*
Y3051972D3*
X5269000Y2831500D3*
Y3051972D3*
D107*
X6131500Y2819000D3*
Y2752071D3*
Y2944000D3*
Y2877071D3*
X6278991Y1510836D3*
Y1443907D3*
D105*
X6531500Y1442470D3*
X6598429D3*
D107*
X5206500Y1144000D3*
Y1077071D3*
D105*
X5131500Y1206500D3*
X5198429D3*
D107*
X6312751Y1342469D3*
Y1275539D3*
D105*
X6531500Y1311219D3*
X6598429D3*
D107*
X3714965Y648035D3*
Y714965D3*
X6756500Y1514571D3*
Y1581500D3*
X6760535Y1414965D3*
Y1348035D3*
D79*
X3794000Y494000D3*
D77*
X3715260D3*
X3636520D3*
D75*
X3876677D3*
X3553843D3*
D73*
X6844000Y1511421D3*
Y1824413D3*
X7021165D3*
Y1511421D3*
D71*
X6294000Y631500D3*
X6606992D3*
Y454335D3*
X6294000D3*
D73*
X6844000Y1106500D3*
Y1419492D3*
X7021165D3*
Y1106500D3*
D69*
X4431205Y1380909D3*
Y1355319D3*
Y1406500D3*
Y1432091D3*
D67*
X4487307Y1462602D3*
X4461717D3*
X4512898D3*
X4538488D3*
X4487307Y1324807D3*
X4461717D3*
X4512898D3*
X4538488D3*
D69*
X4569000Y1380909D3*
Y1355319D3*
Y1406500D3*
Y1432091D3*
D65*
X4500102Y1393705D3*
D63*
X5381500Y644000D3*
Y744000D3*
Y844000D3*
Y944000D3*
Y1044000D3*
Y1144000D3*
Y1244000D3*
Y1344000D3*
Y1444000D3*
Y1544000D3*
Y1644000D3*
Y1744000D3*
X6081682Y644140D3*
Y744140D3*
Y844140D3*
Y944140D3*
Y1044140D3*
Y1144140D3*
Y1244140D3*
Y1344140D3*
Y1444140D3*
Y1544140D3*
Y1644140D3*
Y1744140D3*
D61*
X5331682Y642140D3*
Y742140D3*
Y842140D3*
Y942140D3*
Y1042140D3*
Y1142140D3*
Y1242140D3*
Y1342140D3*
Y1442140D3*
Y1542140D3*
Y1642140D3*
Y1742140D3*
X6131682D3*
Y1642140D3*
Y1542140D3*
Y1442140D3*
Y1342140D3*
Y1242140D3*
Y1142140D3*
Y1042140D3*
Y942140D3*
Y842140D3*
Y742140D3*
Y642140D3*
M02*
