M48
INCH
T01C0.016
T02C0.0315
T03C0.035
T04C0.0354
T05C0.0433
T06C0.0551
T07C0.0591
T08C0.1181
%
T01
X+043440Y+013315
X+043815Y+012190
X+042003Y+012175
X+041377Y+012550
X+040690Y+011737
X+041377Y+007362
X+042002Y+006987
X+037815Y+007190
X+034127Y+006987
X+033502Y+007362
X+032878Y+011737
X+033565Y+012550
X+034127Y+012175
X+029752Y+015675
X+029378Y+015362
X+031127Y+017112
X+031440Y+017425
X+032752Y+019862
X+033503Y+020550
X+034190Y+020175
X+034127Y+022800
X+033502Y+023175
X+032815Y+027550
X+033503Y+028362
X+034163Y+027987
X+034127Y+030737
X+033440Y+031112
X+032752Y+035487
X+033503Y+036300
X+034163Y+035925
X+034127Y+038675
X+033502Y+039050
X+032843Y+043425
X+033503Y+044237
X+034190Y+043862
X+034127Y+046300
X+033502Y+046675
X+032843Y+051300
X+033503Y+051862
X+034163Y+051487
X+034163Y+054425
X+033502Y+054737
X+032843Y+059175
X+033503Y+059862
X+034190Y+059425
X+034127Y+062237
X+033503Y+062612
X+032877Y+066987
X+033503Y+067737
X+034163Y+067237
X+040690Y+066925
X+041378Y+067800
X+042128Y+067300
X+041377Y+062737
X+042002Y+062362
X+041377Y+059800
X+042003Y+059362
X+040717Y+059112
X+041377Y+054737
X+042037Y+054362
X+041377Y+051862
X+042037Y+051487
X+040628Y+051237
X+041315Y+046675
X+042002Y+046300
X+041377Y+044237
X+042002Y+043862
X+040717Y+043362
X+041377Y+039050
X+042002Y+038675
X+041377Y+036300
X+042037Y+035925
X+040627Y+035487
X+041377Y+031112
X+042065Y+030737
X+041377Y+028362
X+042037Y+027987
X+040690Y+027550
X+041377Y+023175
X+042065Y+022800
X+041377Y+020550
X+042037Y+020175
X+040717Y+019737
X+039252Y+017425
X+038815Y+017112
X+046565Y+016925
X+047003Y+017237
X+046252Y+020175
X+045815Y+020487
X+048591Y+019825
X+049251Y+020550
X+049878Y+020175
X+051940Y+019175
X+052378Y+019425
X+054752Y+015925
X+054627Y+014925
X+057127Y+015550
X+057815Y+014925
X+056440Y+011800
X+054565Y+009925
X+054315Y+008925
X+055878Y+007362
X+057128Y+007987
X+055565Y+005737
X+059440Y+005175
X+060190Y+004612
X+059815Y+006612
X+059628Y+009362
X+062565Y+008862
X+062565Y+007925
X+063704Y+006315
X+064999Y+007800
X+065690Y+007800
X+064339Y+011800
X+064877Y+012175
X+066065Y+012565
X+066502Y+013925
X+066190Y+015050
X+065627Y+015612
X+065002Y+015862
X+066502Y+015815
X+064878Y+013550
X+063002Y+013925
X+062065Y+013925
X+062127Y+014737
X+062190Y+015612
X+063128Y+017925
X+063440Y+018050
X+064339Y+019737
X+065002Y+020362
X+065628Y+020237
X+063253Y+025112
X+062940Y+025425
X+061815Y+026440
X+060690Y+025112
X+060315Y+025425
X+057752Y+022862
X+057125Y+023175
X+056465Y+021300
X+056440Y+027550
X+056190Y+028315
X+056190Y+030565
X+055378Y+031362
X+055502Y+031862
X+053815Y+030565
X+053815Y+028315
X+049911Y+027987
X+049251Y+028362
X+048627Y+027550
X+049940Y+030737
X+049252Y+031112
X+048591Y+035487
X+049251Y+036300
X+049940Y+035925
X+049940Y+038675
X+049252Y+039050
X+048628Y+043237
X+049251Y+044237
X+049911Y+043862
X+049877Y+046300
X+049252Y+046675
X+048440Y+051362
X+049251Y+051862
X+049911Y+051487
X+049911Y+054237
X+049251Y+054550
X+048591Y+059112
X+049251Y+059862
X+049940Y+059487
X+049911Y+062237
X+049251Y+062675
X+048565Y+066987
X+049251Y+067737
X+049940Y+067237
X+056440Y+066987
X+057128Y+067550
X+057785Y+067237
X+057125Y+062550
X+057785Y+062175
X+057125Y+059800
X+057815Y+059362
X+056465Y+059112
X+057127Y+054612
X+057785Y+054237
X+057125Y+051862
X+057785Y+051487
X+056378Y+051237
X+057127Y+046675
X+057752Y+046300
X+057125Y+044237
X+057785Y+043862
X+056440Y+043300
X+057125Y+039050
X+057752Y+038675
X+057125Y+036300
X+057815Y+035925
X+056465Y+035612
X+062128Y+035237
X+062628Y+035175
X+064339Y+035487
X+065002Y+035675
X+065377Y+036050
X+065565Y+038675
X+065002Y+039050
X+064315Y+043237
X+065690Y+046237
X+065002Y+046675
X+064190Y+051237
X+065659Y+054112
X+065065Y+054550
X+066815Y+053425
X+067252Y+052800
X+065690Y+059300
X+065065Y+059737
X+064339Y+059175
X+065627Y+061987
X+064999Y+062425
X+066690Y+061300
X+067127Y+061112
X+065690Y+067362
X+065065Y+067800
X+064339Y+066949
X+063502Y+031550
X+063315Y+031237
X+064315Y+027487
X+059565Y+029675
X+058253Y+030003
X+049877Y+022862
X+049252Y+023237
X+048690Y+014315
X+048518Y+013440
X+048565Y+011800
X+045940Y+012190
X+049251Y+007362
X+049877Y+006987
X+052065Y+010315
X+067502Y+012862
X+069315Y+012862
X+070128Y+009862
X+069002Y+004612
X+026315Y+007425
X+025627Y+007862
X+025002Y+011800
X+025629Y+012550
X+026289Y+012175
X+026252Y+014987
X+025629Y+015362
X+024969Y+019612
X+025629Y+020550
X+026289Y+020175
X+026252Y+022800
X+025627Y+023175
X+024940Y+027550
X+025629Y+028362
X+026289Y+027987
X+026315Y+030675
X+025627Y+031112
X+024969Y+035487
X+025629Y+036300
X+026289Y+035925
X+026252Y+038675
X+025627Y+039050
X+024969Y+043425
X+025629Y+044237
X+026289Y+043862
X+026315Y+046300
X+025627Y+046675
X+024877Y+051237
X+025629Y+051862
X+026289Y+051487
X+026289Y+054237
X+025627Y+054612
X+024877Y+059237
X+025629Y+059737
X+026315Y+059425
X+026315Y+062175
X+025629Y+062675
X+024940Y+066925
X+025565Y+067800
X+026289Y+067362
X+018415Y+067362
X+017753Y+067862
X+017127Y+066987
X+017755Y+062675
X+018440Y+062237
X+017755Y+059800
X+018440Y+059425
X+017002Y+059237
X+017755Y+054550
X+018377Y+054112
X+017755Y+051862
X+018415Y+051487
X+017095Y+051237
X+017752Y+046675
X+018415Y+046300
X+017815Y+044237
X+018378Y+043862
X+017002Y+043425
X+017755Y+039050
X+018377Y+038675
X+017755Y+036300
X+018415Y+035925
X+017002Y+035487
X+017752Y+031112
X+018440Y+030737
X+017755Y+028362
X+018440Y+027987
X+017065Y+027425
X+017755Y+023175
X+018377Y+022800
X+017755Y+020550
X+018415Y+020175
X+017065Y+019612
X+017752Y+015362
X+018377Y+014987
X+017755Y+012550
X+018440Y+012175
X+017127Y+011675
X+017752Y+007362
X+018377Y+006987
X+010502Y+007737
X+009690Y+007800
X+009221Y+011737
X+009815Y+012612
X+010565Y+012175
X+008378Y+013737
X+008002Y+014050
X+009877Y+015737
X+010502Y+015362
X+009221Y+019675
X+009881Y+020550
X+010565Y+020175
X+007815Y+021737
X+007378Y+021987
X+009877Y+023487
X+010565Y+023550
X+009221Y+027456
X+009881Y+028362
X+010541Y+027987
X+010541Y+030800
X+009877Y+031112
X+007878Y+029237
X+007440Y+029425
X+009221Y+035487
X+009881Y+036300
X+010565Y+035925
X+010565Y+038550
X+009752Y+038987
X+007815Y+037112
X+007503Y+037487
X+009128Y+043362
X+009881Y+044237
X+010541Y+043862
X+010541Y+046300
X+009815Y+046737
X+007753Y+044987
X+007190Y+045425
X+009221Y+051300
X+009881Y+051862
X+010565Y+051487
X+010565Y+054425
X+009753Y+054862
X+007877Y+052800
X+007440Y+053300
X+009128Y+059175
X+009940Y+059737
X+010541Y+059362
X+009065Y+060675
X+008690Y+061112
X+009190Y+066987
X+009878Y+067737
X+010541Y+067300
T02
X+037940Y+004940
X+037153Y+004940
X+036365Y+004940
T03
X+053815Y+006440
X+053815Y+007440
X+053815Y+008440
X+053815Y+009440
X+053815Y+010440
X+053815Y+011440
X+053815Y+012440
X+053815Y+013440
X+053815Y+014440
X+053815Y+015440
X+053815Y+016440
X+053815Y+017440
X+060817Y+017441
X+060817Y+016441
X+060817Y+015441
X+060817Y+014441
X+060817Y+013441
X+060817Y+012441
X+060817Y+011441
X+060817Y+010441
X+060817Y+009441
X+060817Y+008441
X+060817Y+007441
X+060817Y+006441
T04
X+068378Y+042737
X+068378Y+041737
X+068378Y+040675
X+068378Y+039550
X+068378Y+034987
X+068378Y+033737
X+068378Y+032487
X+068378Y+031362
T05
X+031065Y+014065
X+030065Y+014065
X+029065Y+014065
X+028065Y+014065
T06
X+022628Y+007940
X+020628Y+007940
T07
X+038767Y+004940
X+035538Y+004940
T08
X+068190Y+068190
X+006690Y+068190
X+006690Y+006690
X+068190Y+006690
T00
M30
